<?xml version="1.0" encoding="UTF-8"?>
<svg xmlns="http://www.w3.org/2000/svg" version="1.1" xmlns:xlink="http://www.w3.org/1999/xlink" viewBox="0 0 80 38">
  <defs>
    <style>
      .cls-1 {
        fill: #fff;
      }

      .cls-2 {
        fill: url(#linear-gradient);
      }
    </style>
    <linearGradient id="linear-gradient" x1="11.27" y1="-7.43" x2="69.12" y2="45.79" gradientUnits="userSpaceOnUse">
      <stop offset="0" stop-color="#4e5256"/>
      <stop offset=".28" stop-color="#676c72"/>
      <stop offset=".51" stop-color="#71777c"/>
      <stop offset=".68" stop-color="#676c72"/>
      <stop offset="1" stop-color="#4e5256"/>
    </linearGradient>
  </defs>
  <!-- Generator: Adobe Illustrator 28.6.0, SVG Export Plug-In . SVG Version: 1.2.0 Build 709)  -->
  <g>
    <g id="Layer_1">
      <rect class="cls-2" width="80" height="38"/>
      <g>
        <path class="cls-1" d="M20.69,5.9l2.68,5.89h-1.74l-2.25-5.2h.47l-2.25,5.2h-1.74l2.68-5.89h2.14ZM17.55,10.66v-1.31h4.06v1.31h-4.06Z"/>
        <path class="cls-1" d="M23.92,5.9h1.63v5.89h-1.63v-5.89Z"/>
        <path class="cls-1" d="M25.83,12.02h4.32v1.08h-4.32v-1.08Z"/>
        <path class="cls-1" d="M35.44,5.9v5.89h-1.61v-5.18h.49l-3.06,3.39v-.51s5.12,0,5.12,0v1.2h-6.31v-1.15l3.31-3.64h2.06Z"/>
        <path class="cls-1" d="M36.38,12.02h4.32v1.08h-4.32v-1.08Z"/>
        <path class="cls-1" d="M42.6,5.9v5.17l-.73-.72h4.4v1.44h-5.3v-5.89h1.63Z"/>
        <path class="cls-1" d="M46.98,5.9h1.63v5.89h-1.63v-5.89Z"/>
        <path class="cls-1" d="M54.91,5.9v1.37h-4.37l.78-.78v5.29h-1.63v-5.89h5.21ZM50.49,8.31h4.27v1.37h-4.27v-1.37Z"/>
        <path class="cls-1" d="M57.58,8.84l-.39,2.36-.66-.74h4.51v1.32h-5.47l.45-2.94-.45-2.94h5.43v1.32h-4.47l.66-.74.39,2.36ZM60.79,8.25v1.18h-4.31v-1.18h4.31Z"/>
        <path class="cls-1" d="M62.73,9.19c-.26,0-.48-.08-.64-.24-.17-.16-.25-.36-.25-.61s.08-.45.25-.61c.17-.16.38-.24.64-.24s.48.08.64.24c.17.16.25.36.25.61s-.08.45-.25.61c-.17.16-.38.24-.64.24ZM62.73,11.86c-.26,0-.48-.08-.64-.24-.17-.16-.25-.36-.25-.6s.08-.46.25-.61c.17-.16.38-.24.64-.24s.48.08.64.24c.17.16.25.36.25.61s-.08.45-.25.6c-.17.16-.38.24-.64.24Z"/>
      </g>
      <path class="cls-1" d="M8.06,19l.13-.31c.46,0,.83.08,1.13.21s.52.31.66.53c.15.23.22.49.22.79,0,.32-.07.6-.22.85-.15.25-.37.45-.66.59-.29.14-.65.22-1.09.22H3.89l.46-3.02-.46-2.87h4.19c.54,0,.97.13,1.27.38.3.25.46.61.46,1.06,0,.25-.06.48-.17.71-.12.22-.3.42-.55.57s-.6.25-1.02.29ZM5.5,21.5l-.63-.76h2.93c.24,0,.42-.06.55-.17.13-.12.2-.27.2-.48s-.07-.37-.21-.49c-.14-.12-.35-.19-.63-.19h-2.42v-1.12h2.2c.19,0,.35-.06.47-.17.13-.11.19-.27.19-.46,0-.16-.05-.29-.16-.39s-.27-.15-.47-.15h-2.64l.62-.76.4,2.49-.4,2.65Z"/>
      <path class="cls-1" d="M11.66,16.96c-.28,0-.5-.07-.68-.21-.17-.14-.26-.33-.26-.57s.09-.42.26-.57c.17-.14.4-.21.68-.21s.52.07.69.21c.17.14.26.33.26.57s-.08.43-.26.57c-.17.14-.4.21-.69.21ZM10.86,17.33l.81.16.8-.16v4.55h-1.61v-4.55Z"/>
      <path class="cls-1" d="M16.02,22.01c-.58,0-1.08-.1-1.51-.29-.43-.2-.76-.47-1.01-.83-.24-.36-.36-.77-.36-1.24s.12-.89.36-1.25c.24-.36.58-.63,1.01-.83.43-.2.93-.3,1.51-.3s1.07.1,1.5.3c.43.2.77.48,1.01.83.24.36.36.77.36,1.25s-.12.88-.36,1.24c-.24.36-.58.64-1.01.83-.43.2-.93.29-1.5.29ZM16.02,20.82c.26,0,.49-.05.67-.14.19-.09.33-.23.43-.41.1-.18.15-.39.15-.63s-.05-.46-.15-.64-.24-.31-.43-.4c-.19-.09-.41-.14-.67-.14s-.49.05-.68.14-.33.23-.43.4c-.1.18-.15.39-.15.63s.05.46.15.64c.1.18.24.31.43.41s.41.14.68.14Z"/>
      <path class="cls-1" d="M19.09,18.58v-.7l.91-.37.69-1.33h.91v1.21h1.88v1.19h-1.88v1.32c0,.32.07.55.2.68.13.13.37.2.71.2.22,0,.41-.02.58-.06.17-.04.33-.09.47-.15v1.21c-.16.06-.36.11-.62.16s-.52.07-.79.07c-.5,0-.9-.08-1.22-.23-.32-.15-.55-.37-.7-.66-.15-.28-.23-.62-.23-1v-1.54h-.91Z"/>
      <path class="cls-1" d="M26.71,22.01c-.54,0-1.03-.1-1.46-.3-.43-.2-.76-.48-1.01-.84s-.37-.78-.37-1.25.12-.88.35-1.23c.24-.35.56-.63.97-.83.41-.2.88-.3,1.39-.3s1,.12,1.38.35c.38.23.67.56.88.99.21.42.31.92.31,1.5h-3.99v-.97h3.09l-.53.34c-.02-.23-.08-.43-.17-.58-.09-.16-.22-.28-.37-.36-.15-.08-.34-.13-.55-.13-.24,0-.44.05-.6.14s-.3.22-.39.39c-.09.17-.14.36-.14.58,0,.28.06.52.19.72.13.2.32.35.57.45.25.11.55.16.91.16.33,0,.66-.04.99-.13s.62-.21.89-.36v1.02c-.31.21-.66.37-1.06.48-.4.11-.82.17-1.28.17Z"/>
      <path class="cls-1" d="M35.19,19.99c-.04.4-.19.76-.44,1.06s-.58.54-.98.71-.85.25-1.35.25c-.55,0-1.03-.1-1.45-.3-.42-.2-.75-.48-.98-.83-.24-.35-.35-.77-.35-1.23s.12-.88.35-1.24.56-.64.98-.84.9-.3,1.45-.3c.5,0,.95.09,1.35.26.4.17.73.41.98.71.25.3.4.66.44,1.06h-1.59c-.06-.27-.19-.47-.4-.62-.21-.14-.47-.22-.77-.22-.24,0-.44.05-.62.14-.18.09-.31.23-.41.4-.1.18-.15.39-.15.65s.05.46.15.64c.1.18.23.31.41.4s.38.14.62.14c.3,0,.56-.08.77-.23.21-.15.34-.35.4-.6h1.59Z"/>
      <path class="cls-1" d="M35.83,15.84h1.61v6.05h-1.61v-6.05ZM39.08,17.26c.43,0,.8.09,1.1.26.3.17.53.42.7.73.16.31.24.69.24,1.12v2.51h-1.61v-2.28c0-.33-.08-.59-.26-.77-.17-.18-.41-.27-.73-.27-.22,0-.41.05-.58.14s-.29.23-.38.4-.13.38-.13.61l-.5-.26c.06-.48.2-.88.4-1.21.2-.33.46-.57.76-.74.3-.17.63-.25.99-.25Z"/>
      <path class="cls-1" d="M49.21,15.99v1.37h-4.37l.78-.78v5.29h-1.63v-5.89h5.21ZM44.79,18.4h4.27v1.37h-4.27v-1.37Z"/>
      <path class="cls-1" d="M51.81,22.01c-.42,0-.78-.09-1.07-.26-.3-.17-.52-.42-.68-.73-.16-.32-.24-.69-.24-1.11v-2.51h1.6v2.28c0,.33.08.58.24.76.16.18.4.27.7.27.23,0,.41-.05.57-.14.15-.09.27-.22.35-.4.08-.17.13-.38.13-.62l.49.26c-.06.48-.19.88-.39,1.21-.2.33-.45.57-.74.74-.29.17-.62.25-.97.25ZM53.71,21.88l-.29-1.8v-2.69h1.6v2.94l.29,1.55h-1.6Z"/>
      <path class="cls-1" d="M55.58,18.58v-.7l.91-.37.69-1.33h.91v1.21h1.88v1.19h-1.88v1.32c0,.32.07.55.2.68.13.13.37.2.71.2.22,0,.41-.02.58-.06.17-.04.33-.09.47-.15v1.21c-.16.06-.36.11-.62.16s-.52.07-.79.07c-.5,0-.9-.08-1.22-.23-.32-.15-.55-.37-.7-.66-.15-.28-.23-.62-.23-1v-1.54h-.91Z"/>
      <path class="cls-1" d="M62.63,22.01c-.42,0-.78-.09-1.07-.26-.3-.17-.52-.42-.68-.73-.16-.32-.24-.69-.24-1.11v-2.51h1.6v2.28c0,.33.08.58.24.76.16.18.4.27.7.27.23,0,.41-.05.57-.14.15-.09.27-.22.35-.4.08-.17.13-.38.13-.62l.49.26c-.06.48-.19.88-.39,1.21-.2.33-.45.57-.74.74-.29.17-.62.25-.97.25ZM64.53,21.88l-.29-1.8v-2.69h1.6v2.94l.29,1.55h-1.6Z"/>
      <path class="cls-1" d="M66.59,17.4h1.63l.27,1.6v2.88h-1.6v-2.98l-.3-1.51ZM70.6,17.33v1.37c-.16-.03-.31-.05-.44-.07s-.27-.02-.38-.02c-.23,0-.44.05-.64.14-.19.09-.35.24-.47.45-.12.21-.18.49-.18.84l-.31-.38c.04-.32.1-.63.19-.91.08-.28.2-.54.34-.76.14-.22.32-.4.54-.53.21-.13.48-.19.78-.19.09,0,.18,0,.27.02.09,0,.19.03.28.05Z"/>
      <path class="cls-1" d="M73.66,22.01c-.54,0-1.03-.1-1.46-.3-.43-.2-.76-.48-1.01-.84s-.37-.78-.37-1.25.12-.88.35-1.23c.24-.35.56-.63.97-.83.41-.2.88-.3,1.39-.3s1,.12,1.38.35c.38.23.67.56.88.99.21.42.31.92.31,1.5h-3.99v-.97h3.09l-.53.34c-.02-.23-.08-.43-.17-.58-.09-.16-.22-.28-.37-.36-.15-.08-.34-.13-.55-.13-.24,0-.44.05-.6.14s-.3.22-.39.39c-.09.17-.14.36-.14.58,0,.28.06.52.19.72.13.2.32.35.57.45.25.11.55.16.91.16.33,0,.66-.04.99-.13s.62-.21.89-.36v1.02c-.31.21-.66.37-1.06.48-.4.11-.82.17-1.28.17Z"/>
      <path class="cls-1" d="M29.67,26.09v1.37h-4.37l.78-.78v5.29h-1.63v-5.89h5.21ZM25.25,28.5h4.27v1.37h-4.27v-1.37Z"/>
      <path class="cls-1" d="M32.96,32.1c-.58,0-1.08-.1-1.51-.29-.43-.2-.76-.47-1.01-.83-.24-.36-.36-.77-.36-1.24s.12-.89.36-1.25c.24-.36.58-.63,1.01-.83.43-.2.93-.3,1.51-.3s1.07.1,1.5.3c.43.2.77.48,1.01.83.24.36.36.77.36,1.25s-.12.88-.36,1.24c-.24.36-.58.64-1.01.83-.43.2-.93.29-1.5.29ZM32.96,30.92c.26,0,.49-.05.67-.14.19-.09.33-.23.43-.41.1-.18.15-.39.15-.63s-.05-.46-.15-.64-.24-.31-.43-.4c-.19-.09-.41-.14-.67-.14s-.49.05-.68.14-.33.23-.43.4c-.1.18-.15.39-.15.63s.05.46.15.64c.1.18.24.31.43.41s.41.14.68.14Z"/>
      <path class="cls-1" d="M36.27,27.49h1.63l.27,1.6v2.88h-1.6v-2.98l-.3-1.51ZM40.27,27.42v1.37c-.16-.03-.31-.05-.44-.07s-.27-.02-.38-.02c-.23,0-.44.05-.64.14-.19.09-.35.24-.47.45-.12.21-.18.49-.18.84l-.31-.38c.04-.32.1-.63.19-.91.08-.28.2-.54.34-.76.14-.22.32-.4.54-.53.21-.13.48-.19.78-.19.09,0,.18,0,.27.02.09,0,.19.03.28.05Z"/>
      <path class="cls-1" d="M42.75,32.1c-.42,0-.78-.09-1.07-.26-.3-.17-.52-.42-.68-.73-.16-.32-.24-.69-.24-1.11v-2.51h1.6v2.28c0,.33.08.58.24.76.16.18.4.27.7.27.23,0,.41-.05.57-.14.15-.09.27-.22.35-.4.08-.17.13-.38.13-.62l.49.26c-.06.48-.19.88-.39,1.21-.2.33-.45.57-.74.74-.29.17-.62.25-.97.25ZM44.64,31.98l-.29-1.8v-2.69h1.6v2.94l.29,1.55h-1.6Z"/>
      <path class="cls-1" d="M46.71,27.49h1.61l.29,1.79v2.69h-1.6v-2.94l-.3-1.55ZM50.16,27.36c.41,0,.76.09,1.05.26.29.17.51.42.66.73.15.31.23.69.23,1.12v2.51h-1.6v-2.28c0-.33-.08-.59-.23-.77-.15-.18-.37-.27-.66-.27-.2,0-.38.05-.53.14s-.26.23-.35.4c-.08.17-.12.38-.12.61l-.49-.26c.06-.48.19-.88.38-1.21.19-.33.43-.57.72-.74s.6-.25.94-.25ZM53.64,27.36c.41,0,.77.09,1.06.26.29.17.51.42.66.73.15.31.23.69.23,1.12v2.51h-1.6v-2.28c0-.33-.08-.59-.23-.77-.15-.18-.37-.27-.66-.27-.2,0-.38.05-.53.14-.15.09-.26.23-.35.4-.08.17-.12.38-.12.61l-.49-.26c.06-.48.19-.88.38-1.21s.43-.57.72-.74.6-.25.93-.25Z"/>
    </g>
  </g>
</svg>