<svg width="80" height="38" viewBox="0 0 80 38" fill="none" xmlns="http://www.w3.org/2000/svg">
<rect width="80" height="38" fill="#1D83C7"/>
<path d="M33.226 15.5056L33.2744 15.617C33.7992 17.0492 35.1845 17.9405 36.7121 17.9405C38.2396 17.9405 39.5135 17.0815 39.5135 15.5363C39.5135 14.9793 39.1632 14.5659 38.5739 14.2155C38.2719 14.041 37.9376 13.8651 37.5711 13.7215C37.1885 13.5617 36.7912 13.4195 36.3925 13.2436C34.8166 12.6381 33.1292 11.9066 33.1292 10.2515C33.1292 8.4205 34.8004 7.4339 36.4555 7.4339C37.8247 7.4339 39.1617 8.08626 39.6704 9.4071L39.7027 9.50239L38.8744 9.93192L38.8421 9.8205C38.3334 8.70636 37.2662 7.94259 36.0084 7.94259C34.9734 7.94259 33.9384 8.49966 33.9384 9.58155C33.9384 10.25 34.2888 10.7118 34.8781 11.1091C35.1801 11.285 35.5144 11.4595 35.8809 11.6178C36.2474 11.7761 36.6446 11.9198 37.0595 12.0796C38.6193 12.6528 40.3066 13.3051 40.3066 14.9763C40.3066 17.2046 38.4595 18.4463 36.391 18.4463C34.7037 18.4463 33.0164 17.6034 32.4109 15.9468L32.3948 15.8515L33.2231 15.5012L33.226 15.5056Z" fill="white"/>
<path d="M49.2462 8.48498C49.7548 8.48498 50.1697 8.0877 50.1858 7.57755H50.4087C50.4248 8.05545 50.8059 8.43661 51.2677 8.46886H51.3791V8.69169L51.2839 8.70781C50.7898 8.75619 50.4087 9.15347 50.4087 9.6475H50.1858C50.1858 9.12268 49.7724 8.70781 49.2462 8.70781V8.48498ZM49.6596 10.5549H50.869V18.5137H49.6596V10.5549Z" fill="white"/>
<path d="M33.075 33.1808V21.3533L34.3489 21.3372V23.1198C34.8269 22.0526 35.7812 21.3372 37.0713 21.3372C39.1559 21.3372 40.4298 23.1198 40.4298 25.03C40.4298 27.3067 39.2043 29.296 36.6725 29.296C35.8765 29.296 34.9383 29.057 34.3489 28.4677V33.1794H33.075V33.1808ZM39.1705 25.5402C39.1705 24.0126 38.6135 21.9265 36.7986 21.9265C35.2388 21.9265 34.3475 23.4541 34.3475 24.8717V26.0972C34.3475 27.4972 35.1435 28.8826 36.671 28.8826C38.4214 28.8826 39.1705 27.1 39.1705 25.5402Z" fill="white"/>
<path d="M47.3198 27.5779C46.8742 28.6451 45.9345 29.4089 44.662 29.4089C42.9424 29.4089 41.9236 28.0558 41.9236 26.496V21.3064H43.1653V26.496C43.1653 27.6424 43.929 28.629 45.1238 28.629C46.732 28.629 47.3198 26.9255 47.3198 25.5094V21.3064H48.5454V29.2491H47.3198V27.5779Z" fill="white"/>
<path d="M53.7731 29.4088C51.5448 29.4088 50.7649 28.088 50.7649 26.0987V21.6729H49.8736V21.3064H50.7649V19.5868H52.0066V21.3064H53.4711V21.6729H52.0066V27.2436C52.0066 28.2947 52.6912 29.0893 53.7731 29.0893H53.8845V29.4074H53.7731V29.4088Z" fill="white"/>
<path d="M55.1629 21.2903H56.4207V22.6273C56.9455 21.7359 57.9644 21.2111 59.0155 21.2111C60.7028 21.2111 61.6894 22.4367 61.6894 24.0126V29.2491H60.4477V24.0126C60.4477 22.834 59.8745 21.8166 58.6006 21.8166C57.2636 21.8166 56.4192 22.9307 56.4192 24.2046V29.2505H55.1614V21.2917L55.1629 21.2903Z" fill="white"/>
<path d="M63.1539 19.2203C63.6626 19.2203 64.0775 18.823 64.0936 18.3128H64.3164C64.3326 18.7907 64.7137 19.1719 65.1755 19.2041H65.2869V19.427L65.1916 19.4431C64.6976 19.4915 64.3164 19.8888 64.3164 20.3828H64.0936C64.0936 19.858 63.6802 19.4431 63.1539 19.4431V19.2203ZM63.5673 21.2902H64.7768V29.249H63.5673V21.2902Z" fill="white"/>
<path d="M66.678 17.6283H67.9197V23.3427L68.9224 24.4891L72.042 21.242H72.6152L69.1921 24.7911L73.1077 29.2007H71.4834L67.9182 25.1414V29.2007H66.6765V17.6283H66.678Z" fill="white"/>
<path d="M44.3601 14.1422L43.0143 15.3458V18.5768H41.7404V7H43.0143V14.9309L47.4958 10.879H47.9414L45.3144 13.2832L48.3387 18.5768H46.9065L44.3601 14.1422Z" fill="white"/>
<path d="M17.1575 33.1471L16.9494 28.283L14.4294 30.1272L14.0321 29.5847L16.9494 26.6147V24.1665L13.5893 26.6264L14.0394 22.488L11.7554 23.8499L10.8069 27.7215L10.1384 27.6482L10.4771 24.5447L6.26388 26.6792L6 26.4109L10.0622 23.8264L7.20503 22.5657L7.47624 21.9514L11.3405 22.853L13.6275 21.7682L9.8174 20.0882L13.6275 18.4082L11.6191 17.3248L7.4777 18.2264L7.2065 17.6107L10.0637 16.3499L6.03225 13.739L6.26681 13.44L10.4786 15.6331L10.1414 12.5281L10.8099 12.4548L12.0369 16.6035L14.0423 17.6884L13.5937 13.5514L16.9538 16.0098V13.5631L14.0365 10.5916L14.4337 10.0492L16.9538 11.8948L17.1619 7.02927H17.5797L17.782 11.8934L20.302 10.0477L20.6993 10.5901L17.782 13.5616V16.0084L21.142 13.5485L20.6905 17.6869L22.976 16.3235L23.9245 12.4534L24.5929 12.5267L24.2558 15.6301L28.4675 13.437L28.705 13.7376L24.6706 16.3455L27.5278 17.6063L27.2566 18.222L23.6709 17.3204L21.1069 18.4038L24.9169 20.0823L21.1069 21.7623L23.6723 22.8471L27.2581 21.9456L27.5293 22.5598L24.6721 23.8205L28.7373 26.4006L28.6097 26.8316L24.2587 24.5389L24.5959 27.6423L23.9289 27.7156L22.9789 23.844L20.6949 22.4821L21.145 26.6205L17.785 24.1621V26.6073L20.7023 29.5789L20.305 30.1213L17.785 28.2771L17.5827 33.1412H17.1649L17.1575 33.1471ZM17.7791 23.3338L20.0279 24.6254L19.9663 22.0716L18.0576 21.365L17.7791 23.3338ZM14.7621 22.0731L14.702 24.6268L16.9508 23.3353L16.6723 21.3665L14.7636 22.0731H14.7621ZM12.0413 20.0911L14.3473 21.3548L15.9774 20.3696L14.3473 18.8289L12.0427 20.0911H12.0413ZM18.751 20.0896L20.3812 21.3533L22.6887 20.0896L20.3827 18.8274L18.7525 20.0896H18.751ZM17.7791 16.8469L18.0576 19.0942L19.9663 18.1106L20.0279 15.5568L17.7791 16.8484V16.8469ZM14.7621 18.1091L16.6708 19.0928L16.9494 16.8454L14.7006 15.5554L14.7607 18.1091H14.7621Z" fill="white"/>
</svg>
