<svg width="80" height="38" viewBox="0 0 80 38" fill="none" xmlns="http://www.w3.org/2000/svg">
<g clip-path="url(#clip0_651_209)">
<rect width="80" height="38" fill="#A3000C"/>
<path d="M80 3.8147e-06H0V38H80V3.8147e-06Z" fill="url(#paint0_linear_651_209)"/>
<path d="M9.19112 16.3018V8.63065H8.26944C8.19449 8.43214 8.15601 8.21944 8.15601 7.99257C8.15601 7.78393 8.19449 7.553 8.26944 7.29777H13.3174C13.7995 7.29777 14.2269 7.37474 14.5996 7.53072C14.9723 7.68669 15.2904 7.89939 15.5497 8.1688C15.8089 8.43821 16.0054 8.75422 16.1371 9.11883C16.2688 9.48345 16.3356 9.87238 16.3356 10.2897C16.3356 10.6401 16.2829 10.9966 16.1796 11.3592C16.0763 11.7238 15.9062 12.052 15.6692 12.3457C15.4322 12.6394 15.1202 12.8805 14.7333 13.0689C14.3464 13.2573 13.8724 13.3525 13.3154 13.3525H11.0041V16.3018H12.0534C12.1283 16.5287 12.1668 16.7515 12.1668 16.9683C12.1668 17.0716 12.1547 17.183 12.1324 17.3025C12.1081 17.42 12.0736 17.5314 12.025 17.6367H8.26944C8.19449 17.4099 8.15601 17.187 8.15601 16.9703C8.15601 16.7535 8.19449 16.5307 8.26944 16.3038H9.19112V16.3018ZM12.8495 11.9487C13.3599 11.9487 13.7529 11.8089 14.0264 11.5314C14.2998 11.2519 14.4376 10.8427 14.4376 10.3038C14.4376 9.80351 14.3059 9.41053 14.0405 9.12694C13.7752 8.84334 13.3923 8.70155 12.892 8.70155H11.0061V11.9487H12.8495Z" fill="#FBC266"/>
<path d="M18.262 16.4153V11.4949H17.4112C17.3363 11.2863 17.2978 11.0837 17.2978 10.8852C17.2978 10.6867 17.3363 10.4841 17.4112 10.2755H19.8218L19.8785 11.4666C20.1054 11.023 20.3849 10.713 20.7151 10.5388C21.0453 10.3646 21.3775 10.2775 21.7076 10.2775C21.8677 10.2775 22.0196 10.2957 22.1614 10.3342C22.3032 10.3727 22.4308 10.4153 22.5442 10.4619L22.3741 11.9932C22.2708 11.9467 22.1553 11.9041 22.0277 11.8656C21.9001 11.8271 21.7461 11.8089 21.5659 11.8089C21.4241 11.8089 21.2661 11.8373 21.0918 11.894C20.9176 11.9507 20.7556 12.0479 20.6097 12.1857C20.4639 12.3234 20.3383 12.5098 20.233 12.7468C20.1297 12.9838 20.077 13.2816 20.077 13.6401V16.4193H21.0696C21.1445 16.628 21.183 16.8305 21.183 17.029C21.183 17.2275 21.1445 17.4301 21.0696 17.6388H17.4112C17.3363 17.4301 17.2978 17.2275 17.2978 17.029C17.2978 16.8305 17.3363 16.628 17.4112 16.4193H18.262V16.4153Z" fill="#FBC266"/>
<path d="M27.6732 16.9399C27.4565 17.2134 27.1668 17.4321 26.8082 17.5922C26.4497 17.7522 26.0142 17.8332 25.5037 17.8332C25.1533 17.8332 24.8251 17.7826 24.5172 17.6854C24.2093 17.5861 23.944 17.4402 23.7151 17.2458C23.4882 17.0513 23.3079 16.8163 23.1762 16.5368C23.0446 16.2573 22.9777 15.9332 22.9777 15.5645C22.9777 14.9122 23.1276 14.4159 23.4254 14.0756C23.7232 13.7353 24.0999 13.4841 24.5537 13.3241C25.0074 13.1641 25.5017 13.0648 26.0344 13.0263C26.5692 12.9879 27.0777 12.9453 27.5598 12.8987C27.5598 12.6617 27.5375 12.449 27.4949 12.2606C27.4524 12.0723 27.3775 11.9163 27.2681 11.7927C27.1587 11.6691 27.0108 11.576 26.8204 11.5091C26.632 11.4423 26.391 11.4099 26.0972 11.4099C25.6617 11.4099 25.2505 11.4929 24.8636 11.659C24.4767 11.8251 24.0594 12.0439 23.6158 12.3174V10.8852C23.7475 10.8103 23.9034 10.7252 24.0837 10.63C24.264 10.5348 24.4686 10.4477 24.6995 10.3687C24.9305 10.2876 25.1938 10.2208 25.4855 10.1621C25.7792 10.1053 26.0993 10.077 26.4497 10.077C26.5915 10.077 26.7617 10.0871 26.9602 10.1053C27.1587 10.1236 27.3612 10.1621 27.5699 10.2188C27.7785 10.2755 27.9892 10.3606 28.2019 10.474C28.4146 10.5874 28.6009 10.7394 28.763 10.9278C28.923 11.1161 29.0567 11.3531 29.16 11.6367C29.2633 11.9203 29.316 12.2606 29.316 12.6577V16.4153H30.1101C30.185 16.6239 30.2235 16.8265 30.2235 17.025C30.2235 17.2235 30.185 17.4261 30.1101 17.6347H27.7421L27.6712 16.9399H27.6732ZM27.5598 14.1465L26.0567 14.2883C25.5847 14.3349 25.2465 14.4706 25.0439 14.6935C24.8413 14.9163 24.738 15.21 24.738 15.5807C24.738 15.8258 24.8312 16.0466 25.0155 16.239C25.1999 16.4335 25.4713 16.5307 25.8319 16.5307C26.0587 16.5307 26.2755 16.5003 26.4841 16.4375C26.6928 16.3768 26.8771 16.2856 27.0371 16.1681C27.1972 16.0506 27.3248 15.9109 27.42 15.7508C27.5152 15.5908 27.5618 15.4105 27.5618 15.212V14.1486L27.5598 14.1465Z" fill="#FBC266"/>
<path d="M30.973 16.3585L35.0426 11.4666H32.4335V12.7427C32.235 12.8278 32.0183 12.8704 31.7813 12.8704C31.5645 12.8704 31.3518 12.8278 31.1432 12.7427V10.2755H36.9285V11.5517L32.8589 16.4436H35.7515V15.1816C35.9501 15.1067 36.1628 15.0682 36.3896 15.0682C36.6165 15.0682 36.8251 15.1107 37.0419 15.1958V17.6347H30.973V16.3585Z" fill="#FBC266"/>
<path d="M38.8082 16.4153V11.4949H37.9433C37.8683 11.2863 37.8298 11.0837 37.8298 10.8852C37.8298 10.6867 37.8683 10.4841 37.9433 10.2755H40.368L40.4389 11.1263C40.609 10.871 40.8744 10.632 41.2329 10.4092C41.5915 10.1864 42.0412 10.0749 42.58 10.0749C43.3842 10.0749 43.9959 10.3059 44.4173 10.7697C44.8386 11.2336 45.0473 11.894 45.0473 12.7549V16.4132H45.9122C45.9872 16.6219 46.0256 16.8244 46.0256 17.023C46.0256 17.2215 45.9872 17.424 45.9122 17.6327H42.4949C42.42 17.424 42.3815 17.2215 42.3815 17.023C42.3815 16.8244 42.42 16.6219 42.4949 16.4132H43.2323V12.9392C43.2323 12.4571 43.1573 12.0864 43.0054 11.8251C42.8535 11.5658 42.5516 11.4362 42.0979 11.4362C41.9379 11.4362 41.7697 11.4645 41.5935 11.5213C41.4193 11.578 41.2613 11.6793 41.1195 11.8251C40.9777 11.971 40.8602 12.1715 40.765 12.4288C40.6698 12.684 40.6232 13.0142 40.6232 13.4213V16.4132H41.3606C41.4355 16.6219 41.474 16.8244 41.474 17.023C41.474 17.2215 41.4355 17.424 41.3606 17.6327H37.9433C37.8683 17.424 37.8298 17.2215 37.8298 17.023C37.8298 16.8244 37.8683 16.6219 37.9433 16.4132H38.8082V16.4153Z" fill="#FBC266"/>
<path d="M47.7738 16.4153V11.4949H46.9797C46.9048 11.2863 46.8663 11.0837 46.8663 10.8852C46.8663 10.6867 46.9048 10.4841 46.9797 10.2755H49.5888V16.4153H50.3828C50.4578 16.6239 50.4963 16.8265 50.4963 17.025C50.4963 17.2235 50.4578 17.4261 50.3828 17.6347H46.9797C46.9048 17.4261 46.8663 17.2235 46.8663 17.025C46.8663 16.8265 46.9048 16.6239 46.9797 16.4153H47.7738ZM48.4969 9.26874C48.2032 9.26874 47.95 9.15935 47.7373 8.94261C47.5246 8.72586 47.4173 8.45645 47.4173 8.13437C47.4173 7.81229 47.5246 7.54288 47.7373 7.32613C47.95 7.10939 48.2032 7 48.4969 7C48.7906 7 49.0439 7.10939 49.2565 7.32613C49.4692 7.54288 49.5766 7.81229 49.5766 8.13437C49.5766 8.45645 49.4692 8.72586 49.2565 8.94261C49.0439 9.15935 48.7906 9.26874 48.4969 9.26874Z" fill="#FBC266"/>
<path d="M57.5436 17.0817C57.4018 17.1566 57.2438 17.2397 57.0695 17.3309C56.8953 17.42 56.6989 17.501 56.4801 17.5719C56.2613 17.6428 56.0203 17.7015 55.7508 17.7502C55.4814 17.7968 55.1816 17.8211 54.8494 17.8211C54.264 17.8211 53.7515 17.7198 53.312 17.5152C52.8724 17.3126 52.5017 17.0351 52.1978 16.6867C51.896 16.3363 51.6691 15.9352 51.5172 15.4814C51.3653 15.0277 51.2903 14.5496 51.2903 14.0493C51.2903 13.549 51.3572 13.0284 51.4889 12.5462C51.6205 12.0641 51.8251 11.6388 52.0986 11.2701C52.372 10.9014 52.7144 10.6077 53.1276 10.3909C53.5388 10.1742 54.029 10.0648 54.5962 10.0648C54.9932 10.0648 55.3376 10.1377 55.6313 10.2836C55.925 10.4294 56.1519 10.6219 56.3119 10.8569V10.318C56.5206 10.2431 56.7232 10.2046 56.9217 10.2046C57.1384 10.2046 57.3612 10.2471 57.5881 10.3322V13.2957C57.343 13.3808 57.1101 13.4234 56.8933 13.4234C56.6766 13.4234 56.4396 13.3808 56.2127 13.2957V12.8136C56.2127 12.3315 56.081 11.973 55.8157 11.736C55.5503 11.499 55.2201 11.3815 54.8231 11.3815C54.501 11.3815 54.2316 11.4564 54.0149 11.6084C53.7981 11.7603 53.6198 11.9608 53.4841 12.212C53.3464 12.4632 53.2492 12.7427 53.1945 13.0567C53.1377 13.3687 53.1094 13.6806 53.1094 13.9926C53.1094 14.7481 53.2978 15.3376 53.6766 15.7589C54.0554 16.1803 54.5415 16.3889 55.1371 16.3889C55.4024 16.3889 55.6435 16.3606 55.8602 16.3038C56.077 16.2471 56.2816 16.1722 56.47 16.077C56.6583 15.9818 56.8406 15.8683 57.0149 15.7367C57.1891 15.605 57.3673 15.4632 57.5456 15.3113V17.0837L57.5436 17.0817ZM52.7508 7.553H54.2539L55.0054 8.4605L55.7569 7.553H57.26L55.7002 9.48143H54.3106L52.7508 7.553Z" fill="#FBC266"/>
<path d="M59.7131 16.4153V11.4949H58.8481C58.7732 11.2863 58.7347 11.0837 58.7347 10.8852C58.7347 10.6867 58.7732 10.4841 58.8481 10.2755H61.2728L61.3437 11.1263C61.5139 10.871 61.7792 10.632 62.1378 10.4092C62.4963 10.1864 62.946 10.0749 63.4848 10.0749C64.289 10.0749 64.9008 10.3059 65.3221 10.7697C65.7435 11.2336 65.9521 11.894 65.9521 12.7549V16.4132H66.8171C66.892 16.6219 66.9305 16.8244 66.9305 17.023C66.9305 17.2215 66.892 17.424 66.8171 17.6327H63.3998C63.3248 17.424 63.2863 17.2215 63.2863 17.023C63.2863 16.8244 63.3248 16.6219 63.3998 16.4132H64.1371V12.9392C64.1371 12.4571 64.0622 12.0864 63.9102 11.8251C63.7583 11.5658 63.4565 11.4362 63.0027 11.4362C62.8427 11.4362 62.6746 11.4645 62.4984 11.5213C62.3241 11.578 62.1661 11.6793 62.0244 11.8251C61.8826 11.971 61.7651 12.1715 61.6699 12.4288C61.5747 12.684 61.5281 13.0142 61.5281 13.4213V16.4132H62.2654C62.3404 16.6219 62.3788 16.8244 62.3788 17.023C62.3788 17.2215 62.3404 17.424 62.2654 17.6327H58.8481C58.7732 17.424 58.7347 17.2215 58.7347 17.023C58.7347 16.8244 58.7732 16.6219 58.8481 16.4132H59.7131V16.4153Z" fill="#FBC266"/>
<path d="M68.6786 16.4153V11.4949H67.8846C67.8096 11.2863 67.7711 11.0837 67.7711 10.8852C67.7711 10.6867 67.8096 10.4841 67.8846 10.2755H70.4936V16.4153H71.2877C71.3626 16.6239 71.4011 16.8265 71.4011 17.025C71.4011 17.2235 71.3626 17.4261 71.2877 17.6347H67.8846C67.8096 17.4261 67.7711 17.2235 67.7711 17.025C67.7711 16.8265 67.8096 16.6239 67.8846 16.4153H68.6786ZM69.4018 9.26874C69.1081 9.26874 68.8548 9.15935 68.6421 8.94261C68.4295 8.72586 68.3221 8.45645 68.3221 8.13437C68.3221 7.81229 68.4295 7.54288 68.6421 7.32613C68.8548 7.10939 69.1081 7 69.4018 7C69.6955 7 69.9487 7.10939 70.1614 7.32613C70.3741 7.54288 70.4814 7.81229 70.4814 8.13437C70.4814 8.45645 70.3741 8.72586 70.1614 8.94261C69.9487 9.15935 69.6955 9.26874 69.4018 9.26874Z" fill="#FBC266"/>
<path d="M8.97839 29.582V21.3011H8.12762C8.04254 21.0925 8 20.8859 8 20.6772C8 20.4686 8.04254 20.2701 8.12762 20.0533H10.7934V26.2782L12.7502 24.605H11.9986C11.9136 24.4348 11.871 24.2464 11.871 24.0378C11.871 23.8494 11.9095 23.6509 11.9845 23.4423H15.6286C15.7137 23.6408 15.7562 23.8433 15.7562 24.052C15.7562 24.2606 15.7137 24.4632 15.6286 24.6617H14.7211L13.0621 26.108L15.104 29.582H15.8839C15.9122 29.6853 15.9365 29.7887 15.9548 29.8859C15.973 29.9851 15.9831 30.0864 15.9831 30.1918C15.9831 30.3903 15.9446 30.5928 15.8697 30.8015H12.4666C12.42 30.7164 12.3835 30.6232 12.3612 30.524C12.3369 30.4247 12.3248 30.3275 12.3248 30.2343C12.3248 30.0257 12.3714 29.8271 12.4666 29.6388H13.0763L11.7009 27.2282L10.7934 28.0081V29.6388H11.318C11.4132 29.8271 11.4598 30.0257 11.4598 30.2343C11.4598 30.3295 11.4477 30.4247 11.4254 30.524C11.4011 30.6232 11.3606 30.7164 11.3038 30.8015H8.11344C8.03849 30.5928 8 30.3903 8 30.1918C8 29.9932 8.04254 29.7805 8.12762 29.582H8.97839Z" fill="#FBC266"/>
<path d="M21.347 30.1067C21.1303 30.3801 20.8406 30.5989 20.4821 30.7589C20.1235 30.919 19.688 31 19.1775 31C18.8271 31 18.499 30.9494 18.1911 30.8521C17.8832 30.7529 17.6178 30.607 17.3889 30.4126C17.162 30.2181 16.9817 29.9831 16.8501 29.7036C16.7184 29.424 16.6516 29.0999 16.6516 28.7313C16.6516 28.079 16.8014 27.5827 17.0992 27.2424C17.397 26.9021 17.7738 26.6509 18.2275 26.4909C18.6813 26.3309 19.1755 26.2316 19.7083 26.1931C20.243 26.1546 20.7515 26.1121 21.2336 26.0655C21.2336 25.8285 21.2113 25.6158 21.1688 25.4274C21.1262 25.239 21.0513 25.083 20.9419 24.9595C20.8325 24.8359 20.6846 24.7427 20.4942 24.6759C20.3058 24.609 20.0648 24.5766 19.7711 24.5766C19.3355 24.5766 18.9243 24.6597 18.5374 24.8258C18.1505 24.9919 17.7333 25.2107 17.2896 25.4841V24.052C17.4213 23.977 17.5773 23.892 17.7576 23.7968C17.9378 23.7015 18.1424 23.6144 18.3734 23.5354C18.6043 23.4544 18.8676 23.3876 19.1593 23.3288C19.453 23.2721 19.7731 23.2438 20.1235 23.2438C20.2653 23.2438 20.4355 23.2539 20.634 23.2721C20.8325 23.2903 21.0351 23.3288 21.2437 23.3855C21.4524 23.4423 21.663 23.5273 21.8757 23.6408C22.0884 23.7542 22.2748 23.9061 22.4368 24.0945C22.5969 24.2829 22.7306 24.5199 22.8339 24.8035C22.9372 25.0871 22.9898 25.4274 22.9898 25.8244V29.582H23.7839C23.8588 29.7907 23.8973 29.9932 23.8973 30.1918C23.8973 30.3903 23.8588 30.5928 23.7839 30.8015H21.4159L21.345 30.1067H21.347ZM21.2336 27.3133L19.7306 27.4551C19.2586 27.5017 18.9203 27.6374 18.7177 27.8602C18.5152 28.083 18.4118 28.3768 18.4118 28.7475C18.4118 28.9926 18.505 29.2134 18.6894 29.4058C18.8737 29.6003 19.1451 29.6975 19.5057 29.6975C19.7326 29.6975 19.9493 29.6671 20.158 29.6043C20.3666 29.5435 20.5509 29.4524 20.711 29.3349C20.871 29.2174 20.9986 29.0776 21.0938 28.9176C21.189 28.7576 21.2356 28.5773 21.2356 28.3788V27.3153L21.2336 27.3133Z" fill="#FBC266"/>
<path d="M25.5949 29.582V21.2728H24.8008C24.7259 21.0641 24.6874 20.8616 24.6874 20.6631C24.6874 20.4645 24.7259 20.262 24.8008 20.0533H27.4099V29.582H28.2039C28.2789 29.7907 28.3174 29.9932 28.3174 30.1918C28.3174 30.3903 28.2789 30.5928 28.2039 30.8015H24.8008C24.7259 30.5928 24.6874 30.3903 24.6874 30.1918C24.6874 29.9932 24.7259 29.7907 24.8008 29.582H25.5949Z" fill="#FBC266"/>
<path d="M35.2492 30.3619C34.9372 30.5219 34.5625 30.6698 34.1229 30.8015C33.6833 30.9331 33.2357 31 32.7819 31C32.1114 31 31.5341 30.8886 31.052 30.6658C30.5699 30.4429 30.1769 30.1512 29.8751 29.7866C29.5733 29.422 29.3505 29.0088 29.2087 28.5469C29.0669 28.083 28.996 27.607 28.996 27.1148C28.996 26.6225 29.0588 26.1607 29.1864 25.6968C29.314 25.2329 29.5145 24.8197 29.79 24.4571C30.0635 24.0925 30.4139 23.8008 30.8393 23.578C31.2647 23.3552 31.7711 23.2438 32.3565 23.2438C32.9804 23.2438 33.501 23.3552 33.9163 23.578C34.3316 23.8008 34.6638 24.0885 34.9089 24.4429C35.154 24.7974 35.3282 25.1965 35.4254 25.6421C35.5247 26.0857 35.5753 26.5253 35.5753 26.9608V27.6415H30.8819C30.892 27.9149 30.9467 28.1722 31.0439 28.4132C31.1432 28.6543 31.2728 28.8629 31.4328 29.0371C31.5929 29.2113 31.7873 29.3511 32.0142 29.4544C32.2411 29.5577 32.4923 29.6104 32.7657 29.6104C33.2296 29.6104 33.6469 29.5476 34.0216 29.418C34.3944 29.2903 34.8035 29.104 35.2472 28.8589V30.3619H35.2492ZM33.7178 26.42C33.7077 25.8346 33.5881 25.3768 33.3552 25.0527C33.1243 24.7265 32.7819 24.5625 32.3262 24.5625C31.8704 24.5625 31.5463 24.7326 31.3194 25.0729C31.0925 25.4132 30.9467 25.8629 30.8798 26.42H33.7158H33.7178Z" fill="#FBC266"/>
<path d="M37.3295 29.582V24.6617H36.4646C36.3896 24.4531 36.3511 24.2505 36.3511 24.052C36.3511 23.8535 36.3896 23.6509 36.4646 23.4423H38.8893L38.9602 24.293C39.1303 24.0378 39.3957 23.7988 39.7542 23.576C40.1128 23.3531 40.5625 23.2417 41.1013 23.2417C41.9055 23.2417 42.5172 23.4727 42.9386 23.9365C43.3599 24.4004 43.5686 25.0608 43.5686 25.9217V29.58H44.4335C44.5085 29.7887 44.5469 29.9912 44.5469 30.1897C44.5469 30.3883 44.5085 30.5908 44.4335 30.7995H41.0162C40.9413 30.5908 40.9028 30.3883 40.9028 30.1897C40.9028 29.9912 40.9413 29.7887 41.0162 29.58H41.7536V26.106C41.7536 25.6239 41.6786 25.2532 41.5267 24.9919C41.3748 24.7326 41.0729 24.603 40.6192 24.603C40.4592 24.603 40.291 24.6313 40.1148 24.688C39.9406 24.7448 39.7826 24.8461 39.6408 24.9919C39.499 25.1377 39.3815 25.3383 39.2863 25.5955C39.1911 25.8508 39.1445 26.181 39.1445 26.5881V29.58H39.8819C39.9568 29.7887 39.9953 29.9912 39.9953 30.1897C39.9953 30.3883 39.9568 30.5908 39.8819 30.7995H36.4646C36.3896 30.5908 36.3511 30.3883 36.3511 30.1897C36.3511 29.9912 36.3896 29.7887 36.4646 29.58H37.3295V29.582Z" fill="#FBC266"/>
<path d="M50.2876 29.9365C49.8055 30.6455 49.135 31 48.2741 31C47.6685 31 47.1661 30.8764 46.763 30.6313C46.3619 30.3862 46.0398 30.0743 45.7988 29.6955C45.5577 29.3167 45.3876 28.8994 45.2883 28.4416C45.1891 27.9838 45.1404 27.5361 45.1404 27.1006C45.1404 26.5618 45.2113 26.0574 45.3531 25.5895C45.4949 25.1215 45.6995 24.7124 45.9689 24.3639C46.2383 24.0135 46.5706 23.74 46.9676 23.5415C47.3646 23.343 47.8184 23.2437 48.3288 23.2437C48.7259 23.2437 49.0905 23.3227 49.4207 23.4787C49.7508 23.6347 50.0061 23.8494 50.1864 24.1229V21.2728H49.3781C49.293 21.0743 49.2505 20.8717 49.2505 20.6631C49.2505 20.4544 49.293 20.2519 49.3781 20.0533H52.0013V29.582H52.8238C52.8987 29.7907 52.9372 29.9932 52.9372 30.1918C52.9372 30.3903 52.8987 30.5928 52.8238 30.8015H50.3565L50.2856 29.9365H50.2876ZM48.6144 29.6529C48.7562 29.6529 48.9183 29.6205 49.1047 29.5537C49.289 29.4868 49.4672 29.3653 49.6354 29.185C49.8055 29.0047 49.9494 28.7515 50.0668 28.4254C50.1843 28.0992 50.2451 27.682 50.2451 27.1715C50.2451 26.9629 50.2289 26.7157 50.1945 26.4261C50.162 26.1384 50.0911 25.8589 49.9818 25.5895C49.8724 25.32 49.7124 25.0911 49.4997 24.9007C49.287 24.7124 49.0013 24.6171 48.6408 24.6171C48.262 24.6171 47.9642 24.7124 47.7475 24.9007C47.5307 25.0891 47.3646 25.3221 47.2512 25.5955C47.1377 25.869 47.0668 26.1607 47.0385 26.4686C47.0101 26.7765 46.9959 27.0419 46.9959 27.2687C46.9959 27.9777 47.1377 28.551 47.4213 28.9926C47.7049 29.4321 48.102 29.6509 48.6124 29.6509L48.6144 29.6529Z" fill="#FBC266"/>
<path d="M58.3984 30.1067C58.1816 30.3801 57.8919 30.5989 57.5334 30.7589C57.1749 30.919 56.7393 31 56.2289 31C55.8784 31 55.5503 30.9494 55.2424 30.8521C54.9345 30.7529 54.6691 30.607 54.4402 30.4126C54.2133 30.2181 54.0331 29.9831 53.9014 29.7036C53.7697 29.424 53.7029 29.0999 53.7029 28.7313C53.7029 28.079 53.8528 27.5827 54.1506 27.2424C54.4483 26.9021 54.8251 26.6509 55.2788 26.4909C55.7326 26.3309 56.2269 26.2316 56.7596 26.1931C57.2944 26.1546 57.8028 26.1121 58.2849 26.0655C58.2849 25.8285 58.2626 25.6158 58.2201 25.4274C58.1776 25.239 58.1026 25.083 57.9932 24.9595C57.8838 24.8359 57.736 24.7427 57.5456 24.6759C57.3572 24.609 57.1161 24.5766 56.8224 24.5766C56.3869 24.5766 55.9757 24.6597 55.5888 24.8258C55.2019 24.9919 54.7846 25.2107 54.341 25.4841V24.052C54.4726 23.977 54.6286 23.892 54.8089 23.7968C54.9892 23.7015 55.1938 23.6144 55.4247 23.5354C55.6556 23.4544 55.919 23.3876 56.2106 23.3288C56.5044 23.2721 56.8244 23.2438 57.1749 23.2438C57.3167 23.2438 57.4868 23.2539 57.6853 23.2721C57.8838 23.2903 58.0864 23.3288 58.295 23.3855C58.5037 23.4423 58.7144 23.5273 58.9271 23.6408C59.1397 23.7542 59.3261 23.9061 59.4882 24.0945C59.6482 24.2829 59.7819 24.5199 59.8852 24.8035C59.9885 25.0871 60.0412 25.4274 60.0412 25.8244V29.582H60.8352C60.9102 29.7907 60.9487 29.9932 60.9487 30.1918C60.9487 30.3903 60.9102 30.5928 60.8352 30.8015H58.4672L58.3963 30.1067H58.3984ZM58.2869 27.3133L56.7839 27.4551C56.3119 27.5017 55.9736 27.6374 55.7711 27.8602C55.5685 28.083 55.4652 28.3768 55.4652 28.7475C55.4652 28.9926 55.5584 29.2134 55.7427 29.4058C55.9271 29.6003 56.1985 29.6975 56.5591 29.6975C56.7859 29.6975 57.0027 29.6671 57.2113 29.6043C57.42 29.5435 57.6043 29.4524 57.7643 29.3349C57.9244 29.2174 58.052 29.0776 58.1472 28.9176C58.2424 28.7576 58.289 28.5773 58.289 28.3788V27.3153L58.2869 27.3133Z" fill="#FBC266"/>
<path d="M62.6968 29.582V24.6617H61.846C61.7711 24.4531 61.7326 24.2505 61.7326 24.052C61.7326 23.8535 61.7711 23.6509 61.846 23.4423H64.2566L64.3133 24.6334C64.5402 24.1897 64.8197 23.8798 65.1499 23.7056C65.4801 23.5314 65.8123 23.4443 66.1425 23.4443C66.3025 23.4443 66.4544 23.4625 66.5962 23.501C66.738 23.5395 66.8656 23.582 66.9791 23.6286L66.8089 25.16C66.7056 25.1134 66.5901 25.0709 66.4625 25.0324C66.3349 24.9939 66.1809 24.9757 66.0007 24.9757C65.8589 24.9757 65.7009 25.0041 65.5267 25.0608C65.3525 25.1175 65.1904 25.2147 65.0446 25.3525C64.8987 25.4902 64.7731 25.6766 64.6678 25.9136C64.5645 26.1506 64.5118 26.4483 64.5118 26.8069V29.5861H65.5044C65.5793 29.7947 65.6178 29.9973 65.6178 30.1958C65.6178 30.3943 65.5793 30.5969 65.5044 30.8055H61.846C61.7711 30.5969 61.7326 30.3943 61.7326 30.1958C61.7326 29.9973 61.7711 29.7947 61.846 29.5861H62.6968V29.582Z" fill="#FBC266"/>
</g>
<defs>
<linearGradient id="paint0_linear_651_209" x1="40.699" y1="1.77556" x2="38.9842" y2="35.3153" gradientUnits="userSpaceOnUse">
<stop stop-color="#AB000C"/>
<stop offset="0.44" stop-color="#89000C"/>
<stop offset="1" stop-color="#59000C"/>
</linearGradient>
<clipPath id="clip0_651_209">
<rect width="80" height="38" fill="white"/>
</clipPath>
</defs>
</svg>
